<?xml version="1.0" encoding="UTF-8"?>
<svg width="30px" height="30px" viewBox="0 0 30 30" version="1.1" xmlns="http://www.w3.org/2000/svg" xmlns:xlink="http://www.w3.org/1999/xlink">
    <!-- Generator: Sketch 53.2 (72643) - https://sketchapp.com -->
    <title>Admin</title>
    <desc>Created with Sketch.</desc>
    <g id="Page-1" stroke="none" stroke-width="1" fill="none" fill-rule="evenodd">
        <g id="Admin">
            <g id="Group">
                <circle id="Oval" fill="#129BC0" cx="15" cy="15" r="15"></circle>
                <g id="74472" transform="translate(6.000000, 22.000000)" fill="#000000" fill-rule="nonzero">
                    <path d="M0.0766616575,0.980519695 C0.075450667,0.785934032 0.0742396765,0.925695421 0.0766616575,0.980519695 L0.0766616575,0.980519695 Z" id="Path"></path>
                    <path d="M16.9603226,1.11510857 C16.9641574,1.06551429 16.9616345,0.771028571 16.9603226,1.11510857 L16.9603226,1.11510857 Z" id="Path"></path>
                </g>
            </g>
            <g id="236831" transform="translate(6.000000, 4.000000)" fill-rule="nonzero">
                <g id="Group" transform="translate(0.000000, 13.983051)">
                    <path d="M9.05454545,1.26516949 C9.03636364,1.26516949 9.01818182,1.30516949 9,1.30516949 C8.98181818,1.30516949 8.96363636,1.26516949 8.94545455,1.26516949 L9.05454545,1.26516949 Z" id="Path" fill="#84DBFF"></path>
                    <path d="M17.9636364,3.63559322 C15.8545455,6.30169492 12.6181818,8.01694915 9,8.01694915 C5.38181818,8.01694915 2.14545455,6.30169492 0.0363636364,3.63559322 C1.54545455,1.56610169 3.85454545,0.540677966 5.74545455,0.0372881356 C5.6,1.26779661 6.21818182,2.90847458 6.23636364,2.87118644 C6.87272727,1.37966102 9,1.24915254 9,1.24915254 C9,1.24915254 11.1272727,1.37966102 11.7454545,2.87118644 C11.7636364,2.90847458 12.4,1.26779661 12.2363636,0.0372881356 C14.1454545,0.540677966 16.4727273,1.56610169 17.9636364,3.63559322 Z" id="Path" fill="#000000"></path>
                </g>
                <path d="M11.6,12.8644068 C11.6,12.8644068 11.6,12.8644068 11.6,12.8830508 C11.6,13.0694915 11.5090909,14.2627119 9.05454545,15.2135593 L8.94545455,15.2135593 C6.49090909,14.2627119 6.4,13.0694915 6.4,12.8830508 C6.4,12.8644068 6.4,12.8644068 6.4,12.8644068 C6.4,12.6220339 6.45454545,12.379661 6.50909091,12.1372881 C7.21818182,13.0508475 8.07272727,13.6661017 9,13.6661017 C9.92727273,13.6661017 10.7818182,13.0508475 11.4909091,12.1372881 C11.5454545,12.379661 11.6,12.6220339 11.6,12.8644068 Z" id="Path" fill="#FDD7AD"></path>
                <g id="Group" transform="translate(5.727273, 12.864407)" fill="#FFFFFF">
                    <path d="M5.87272727,0 C5.87272727,0 6,1.34237288 3.27272727,2.38644068 C3.27272727,2.38644068 5.4,2.51694915 6.01818182,4.00847458 C6.05454545,4.04576271 7.27272727,0.801694915 5.87272727,0 Z" id="Path"></path>
                    <path d="M0.672727273,0 C-0.727272727,0.801694915 0.490909091,4.04576271 0.527272727,3.98983051 C1.16363636,2.49830508 3.27272727,2.36779661 3.27272727,2.36779661 C0.545454545,1.34237288 0.672727273,0 0.672727273,0 Z" id="Path"></path>
                </g>
                <g id="Group" transform="translate(4.181818, 3.355932)" fill="#FDD7AD">
                    <path d="M8.63636364,4.79152542 C8.47272727,5.94745763 7.98181818,7.02881356 7.16363636,7.84915254 C7,8.01694915 6.85454545,8.14745763 6.67272727,8.2779661 L6.38181818,7.32711864 L3.25454545,7.32711864 L2.96363636,8.2779661 C2.38181818,7.83050847 1.16363636,6.58135593 1.14545455,5.40677966 C0.636363636,-1.28644068 5.63636364,0.130508475 5.63636364,0.130508475 C9,-0.111864407 8.89090909,2.92711864 8.63636364,4.79152542 Z" id="Path"></path>
                    <path d="M9.30909091,6.00338983 C9.05454545,6.43220339 8.70909091,6.73050847 8.38181818,6.84237288 C8.50909091,6.5440678 8.61818182,6.22711864 8.70909091,5.91016949 C8.70909091,5.91016949 8.70909091,5.91016949 8.70909091,5.89152542 C8.78181818,5.61186441 8.85454545,5.33220339 8.92727273,5.05254237 L8.90909091,5.05254237 C8.98181818,4.77288136 9.05454545,4.49322034 9.10909091,4.21355932 C9.18181818,4.21355932 9.25454545,4.25084746 9.32727273,4.28813559 C9.72727273,4.54915254 9.70909091,5.31355932 9.30909091,6.00338983 Z" id="Path"></path>
                    <path d="M1.25454545,6.84237288 C0.927272727,6.73050847 0.581818182,6.43220339 0.327272727,6.00338983 C-0.0909090909,5.31355932 -0.0909090909,4.54915254 0.309090909,4.30677966 C0.345454545,4.28813559 0.363636364,4.26949153 0.4,4.26949153 C0.618181818,5.14576271 0.872727273,5.79830508 0.927272727,5.92881356 C1.01818182,6.22711864 1.12727273,6.5440678 1.25454545,6.84237288 Z" id="Path"></path>
                </g>
                <path d="M10.9818182,1.6220339 C11.1272727,-0.093220339 8.47272727,0.0186440678 8.47272727,0.0186440678 C4.45454545,0.615254237 4.01818182,4.4559322 4.01818182,4.4559322 L4.56363636,3.78474576 C3.70909091,5.70508475 5,9.00508475 5.10909091,9.26610169 C5.78181818,11.559322 7.27272727,13.6661017 9,13.6661017 C10.7272727,13.6661017 12.2181818,11.559322 12.8909091,9.26610169 L12.8909091,9.26610169 C12.8909091,9.26610169 12.8909091,9.26610169 12.8909091,9.24745763 C12.9636364,8.96779661 13.0363636,8.68813559 13.0909091,8.40847458 L13.0727273,8.40847458 C13.4363636,6.91694915 13.8363636,5.40677966 13.8363636,5.40677966 C14.8727273,0.0559322034 10.9818182,1.6220339 10.9818182,1.6220339 Z M12.8181818,8.14745763 C12.6545455,9.30338983 12.1636364,10.3847458 11.3454545,11.2050847 C11.1818182,11.3728814 11.0181818,11.5033898 10.8545455,11.6338983 L10.5636364,10.7016949 L7.43636364,10.7016949 L7.14545455,11.6525424 C6.56363636,11.2050847 6.07272727,10.5898305 5.67272727,9.88135593 C5.49090909,9.50847458 5.38181818,9.11694915 5.32727273,8.78135593 C4.81818182,2.08813559 9.81818182,3.50508475 9.81818182,3.50508475 C13.1818182,3.2440678 13.0727273,6.28305085 12.8181818,8.14745763 Z" id="SVGCleanerId_0" fill="#324A5E"></path>
                <path d="M10.9818182,1.6220339 C11.1272727,-0.093220339 8.47272727,0.0186440678 8.47272727,0.0186440678 C4.45454545,0.615254237 4.01818182,4.4559322 4.01818182,4.4559322 L4.56363636,3.78474576 C3.70909091,5.70508475 5,9.00508475 5.10909091,9.26610169 C5.78181818,11.559322 7.27272727,13.6661017 9,13.6661017 C10.7272727,13.6661017 12.2181818,11.559322 12.8909091,9.26610169 L12.8909091,9.26610169 C12.8909091,9.26610169 12.8909091,9.26610169 12.8909091,9.24745763 C12.9636364,8.96779661 13.0363636,8.68813559 13.0909091,8.40847458 L13.0727273,8.40847458 C13.4363636,6.91694915 13.8363636,5.40677966 13.8363636,5.40677966 C14.8727273,0.0559322034 10.9818182,1.6220339 10.9818182,1.6220339 Z M12.8181818,8.14745763 C12.6545455,9.30338983 12.1636364,10.3847458 11.3454545,11.2050847 C11.1818182,11.3728814 11.0181818,11.5033898 10.8545455,11.6338983 L10.5636364,10.7016949 L7.43636364,10.7016949 L7.14545455,11.6525424 C6.56363636,11.2050847 6.07272727,10.5898305 5.67272727,9.88135593 C5.49090909,9.50847458 5.38181818,9.11694915 5.32727273,8.78135593 C4.81818182,2.08813559 9.81818182,3.50508475 9.81818182,3.50508475 C13.1818182,3.2440678 13.0727273,6.28305085 12.8181818,8.14745763 Z" id="SVGCleanerId_0_1_" fill="#324A5E"></path>
                <path d="M10.9818182,1.6220339 C11.1272727,-0.093220339 8.47272727,0.0186440678 8.47272727,0.0186440678 C4.45454545,0.615254237 4.01818182,4.4559322 4.01818182,4.4559322 L4.56363636,3.78474576 C3.70909091,5.70508475 5,9.00508475 5.10909091,9.26610169 C5.78181818,11.559322 7.27272727,13.6661017 9,13.6661017 C10.7272727,13.6661017 12.2181818,11.559322 12.8909091,9.26610169 L12.8909091,9.26610169 C12.8909091,9.26610169 12.8909091,9.26610169 12.8909091,9.24745763 C12.9636364,8.96779661 13.0363636,8.68813559 13.0909091,8.40847458 L13.0727273,8.40847458 C13.4363636,6.91694915 13.8363636,5.40677966 13.8363636,5.40677966 C14.8727273,0.0559322034 10.9818182,1.6220339 10.9818182,1.6220339 Z M12.8181818,8.14745763 C12.6545455,9.30338983 12.1636364,10.3847458 11.3454545,11.2050847 C11.1818182,11.3728814 11.0181818,11.5033898 10.8545455,11.6338983 L10.5636364,10.7016949 L7.43636364,10.7016949 L7.14545455,11.6525424 C6.56363636,11.2050847 5.34545455,9.9559322 5.32727273,8.78135593 C4.81818182,2.08813559 9.81818182,3.50508475 9.81818182,3.50508475 C13.1818182,3.2440678 13.0727273,6.28305085 12.8181818,8.14745763 Z" id="Shape" fill="#464646"></path>
                <path d="M7.72727273,11.3355932 C8.03636364,11.6898305 8.49090909,11.9322034 9,11.9322034 C9.50909091,11.9322034 9.96363636,11.7084746 10.2727273,11.3355932 L7.72727273,11.3355932 Z" id="Path" fill="#FFFFFF"></path>
            </g>
        </g>
    </g>
</svg>